<svg width="620" height="760" viewBox="0 0 620 760" fill="none" xmlns="http://www.w3.org/2000/svg">
  <rect width="620" height="760" fill="#E2D6C6"/>
  <path d="M0 166C102 122 138 240 216 228C287 217 328 101 418 113C514 126 547 238 620 208V760H0V166Z" fill="#D7CAB7"/>
  <path d="M0 304C98 264 146 346 226 334C304 321 352 230 441 241C539 254 571 354 620 331V760H0V304Z" fill="#CFC0AB"/>
  <path d="M0 430C92 411 159 478 248 461C331 446 378 380 454 393C546 409 580 495 620 486V760H0V430Z" fill="#E8DCCA"/>
  <path d="M0 562C116 528 164 624 246 606C332 587 387 503 465 519C547 536 580 618 620 603V760H0V562Z" fill="#CDBCA5"/>
  <path d="M44 0V760" stroke="#EFE6D8" stroke-width="3" stroke-dasharray="8 12"/>
  <path d="M188 0V760" stroke="#D3C1AA" stroke-width="3" stroke-dasharray="8 12"/>
  <path d="M348 0V760" stroke="#F0E6D7" stroke-width="3" stroke-dasharray="8 12"/>
  <path d="M520 0V760" stroke="#D3C1AA" stroke-width="3" stroke-dasharray="8 12"/>
</svg>
