<svg width="1200" height="640" viewBox="0 0 1200 640" fill="none" xmlns="http://www.w3.org/2000/svg">
  <rect width="1200" height="640" fill="#1A1412"/>
  <rect x="111" y="54" width="978" height="532" fill="#2F221C"/>
  <rect x="203" y="112" width="794" height="374" fill="#143039"/>
  <rect x="334" y="438" width="532" height="108" fill="#4C321F"/>
  <rect x="334" y="460" width="532" height="12" fill="#765135"/>
  <rect x="186" y="96" width="125" height="438" fill="#2B201B"/>
  <rect x="889" y="96" width="125" height="438" fill="#2B201B"/>
  <path d="M531 258C531 211.608 568.608 174 615 174C661.392 174 699 211.608 699 258V456H531V258Z" fill="#1C1C20"/>
  <path d="M577 212H653L687 349H543L577 212Z" fill="#252930"/>
  <rect x="598" y="220" width="34" height="236" fill="#FBF3E9"/>
  <path d="M615 246L651 313H579L615 246Z" fill="#61413A"/>
  <circle cx="436" cy="176" r="20" fill="#CC9E51"/>
  <circle cx="794" cy="176" r="20" fill="#CC9E51"/>
  <path d="M436 176V283" stroke="#CC9E51" stroke-width="4"/>
  <path d="M794 176V283" stroke="#CC9E51" stroke-width="4"/>
  <path d="M388 282H484L514 454H358L388 282Z" fill="#3C404A"/>
  <path d="M748 282H844L874 454H718L748 282Z" fill="#3C404A"/>
  <rect x="169" y="144" width="94" height="178" fill="#74685D"/>
  <rect x="937" y="144" width="94" height="178" fill="#74685D"/>
</svg>
